<svg width="30" height="30" viewBox="0 0 30 30" fill="none" xmlns="http://www.w3.org/2000/svg">
<path d="M15 30C23.2843 30 30 23.2843 30 15C30 6.71573 23.2843 0 15 0C6.71573 0 0 6.71573 0 15C0 23.2843 6.71573 30 15 30Z" fill="#F8F8F8"/>
<path d="M29.9992 15.0904C29.9988 12.2062 29.177 9.38255 27.6313 6.95369C26.0855 4.52483 23.8805 2.59248 21.2772 1.3854C18.674 0.178318 15.7815 -0.252946 12.9422 0.142663C10.1029 0.538271 7.43572 1.74419 5.25639 3.61764C3.07706 5.4911 1.47686 7.95365 0.645212 10.7138C-0.186434 13.4739 -0.214694 16.416 0.563778 19.1917C1.34225 21.9675 2.89486 24.4607 5.03779 26.3762C7.18072 28.2917 9.82424 29.5492 12.6554 30V19.4525H8.84777V15.0888H12.6554V11.7669C12.6554 7.9833 14.8956 5.89457 18.321 5.89457C19.446 5.91034 20.5683 6.00882 21.679 6.18922V9.90355H19.7882C17.9257 9.90355 17.3415 11.0675 17.3415 12.2608V15.0904H21.5016L20.8365 19.454H17.3438V30C20.8719 29.4377 24.0848 27.6273 26.4048 24.8944C28.7247 22.1615 29.9996 18.6853 30 15.0911L29.9992 15.0904Z" fill="#1877F2"/>
</svg>
