<svg width="30" height="30" viewBox="0 0 30 30" fill="none" xmlns="http://www.w3.org/2000/svg">
<path d="M15 30C23.2843 30 30 23.2843 30 15C30 6.71573 23.2843 0 15 0C6.71573 0 0 6.71573 0 15C0 23.2843 6.71573 30 15 30Z" fill="#25D366"/>
<path d="M20.0933 16.571C19.8407 16.4453 18.6031 15.8379 18.3678 15.7536C18.1326 15.6693 17.9679 15.6287 17.7984 15.8808C17.629 16.133 17.1467 16.6982 17 16.8653C16.8534 17.0324 16.7051 17.0542 16.451 16.9285C15.7068 16.6321 15.0197 16.2095 14.4205 15.6794C13.8682 15.1715 13.3951 14.5845 13.0166 13.9377C12.87 13.6863 13.001 13.5474 13.1272 13.4256C13.2409 13.3132 13.3805 13.132 13.506 12.9861C13.61 12.8584 13.6953 12.7167 13.7594 12.5653C13.7931 12.4961 13.8088 12.4196 13.8051 12.3428C13.8014 12.266 13.7784 12.1914 13.7382 12.1257C13.6747 12.0001 13.1696 10.7627 12.9602 10.2591C12.7547 9.76963 12.5468 9.83598 12.3916 9.8274C12.2363 9.81881 12.0684 9.81803 11.9077 9.81881C11.7799 9.82175 11.6541 9.85102 11.5383 9.90477C11.4225 9.95851 11.3191 10.0356 11.2347 10.1311C10.9492 10.4003 10.7231 10.7259 10.5709 11.0869C10.4188 11.4479 10.3438 11.8366 10.3508 12.228C10.433 13.1759 10.7912 14.0794 11.3814 14.8277C12.4647 16.4433 13.9511 17.751 15.695 18.6226C16.1648 18.8244 16.6453 19.0008 17.1342 19.1511C17.6489 19.3077 18.1934 19.3419 18.7239 19.2511C19.0753 19.1796 19.4081 19.0365 19.7013 18.831C19.9946 18.6255 20.2421 18.3618 20.4282 18.0566C20.5939 17.6815 20.6449 17.266 20.5748 16.8622C20.5121 16.7576 20.3435 16.6943 20.0909 16.5686L20.0933 16.571ZM15.4856 22.8321C13.9816 22.8321 12.5052 22.4295 11.2112 21.6665L10.9053 21.4854L7.72268 22.3176L8.5705 19.2323L8.37129 18.9162C7.38136 17.3462 6.94364 15.4933 7.12696 13.6487C7.31028 11.8041 8.10424 10.0724 9.38402 8.72596C10.6638 7.37948 12.3568 6.49454 14.1969 6.21024C16.037 5.92595 17.9199 6.25843 19.5495 7.1554C21.1791 8.05238 22.463 9.463 23.1994 11.1655C23.9358 12.868 24.083 14.7658 23.6177 16.5606C23.1524 18.3554 22.1011 19.9454 20.6291 21.0807C19.157 22.2159 17.3477 22.832 15.4856 22.8321ZM22.6336 7.35808C20.9004 5.63285 18.5964 4.59342 16.1505 4.43331C13.7047 4.27321 11.2838 5.00336 9.33851 6.48781C7.39326 7.97225 6.05627 10.1098 5.5765 12.5025C5.09673 14.8951 5.50687 17.3798 6.73056 19.4939L5.29688 24.7057L10.6536 23.3067C12.1348 24.1102 13.7948 24.5313 15.4817 24.5316H15.4856C17.4843 24.5308 19.4379 23.9403 21.0995 22.8347C22.7612 21.7291 24.0563 20.158 24.8213 18.32C25.5862 16.482 25.7867 14.4595 25.3973 12.5081C25.0079 10.5567 24.0462 8.76403 22.6336 7.35652V7.35808Z" fill="#F8F8F8"/>
</svg>
