<svg width="30" height="30" viewBox="0 0 30 30" fill="none" xmlns="http://www.w3.org/2000/svg">
<path d="M15 30C23.2843 30 30 23.2843 30 15C30 6.71573 23.2843 0 15 0C6.71573 0 0 6.71573 0 15C0 23.2843 6.71573 30 15 30Z" fill="#F8F8F8"/>
<path d="M15 29.9999C12.9961 30.0054 11.0122 29.6015 9.1699 28.813C7.37812 28.0752 5.75017 26.9899 4.37998 25.6197C3.00979 24.2496 1.92448 22.6216 1.18668 20.8299C0.403588 18.986 0 17.0032 0 14.9998C0 12.9965 0.403588 11.0137 1.18668 9.1698C1.92448 7.37804 3.00979 5.75011 4.37998 4.37993C5.75017 3.00976 7.37812 1.92446 9.1699 1.18666C11.0138 0.403583 12.9967 0 15 0C17.0033 0 18.9862 0.403583 20.8301 1.18666C22.6219 1.92446 24.2498 3.00976 25.62 4.37993C26.9902 5.75011 28.0755 7.37804 28.8133 9.1698C29.5964 11.0137 30 12.9965 30 14.9998C30 17.0032 29.5964 18.986 28.8133 20.8299C28.0755 22.6216 26.9902 24.2496 25.62 25.6197C24.2498 26.9899 22.6219 28.0752 20.8301 28.813C18.9878 29.6015 17.0039 30.0054 15 29.9999ZM23.8186 7.49979C23.6367 7.59709 23.4605 7.7047 23.2909 7.8221L22.7194 8.20671L22.1809 8.49979L21.5655 8.70441C21.236 8.32136 20.8265 8.01529 20.3658 7.80781C19.9051 7.60033 19.4045 7.49649 18.8993 7.50363C16.6141 7.50363 15.4715 8.46056 15.4715 10.3744V12.0998C12.3269 11.946 9.91453 10.7937 8.2345 8.64287C8.008 8.85893 7.82665 9.1178 7.70094 9.40447C7.57523 9.69114 7.50767 9.99991 7.50218 10.3129C7.47085 10.8833 7.58644 11.4523 7.8379 11.9653C8.08935 12.4783 8.46826 12.9182 8.93835 13.2429C8.82092 13.2429 8.65476 13.2526 8.43988 13.2721C8.26968 13.2919 8.09777 13.2919 7.92757 13.2721C7.77906 13.2453 7.63558 13.1958 7.50218 13.1252C7.47243 13.933 7.72634 14.7258 8.21988 15.366C8.72073 15.9738 9.42202 16.3829 10.1976 16.5198C10.097 16.6374 9.97074 16.7302 9.82856 16.7912C9.68637 16.8521 9.53208 16.8796 9.37759 16.8714C9.08263 16.8772 8.79412 16.7846 8.55758 16.6083C8.5553 16.9768 8.65722 17.3384 8.85158 17.6514C9.04593 17.9644 9.32482 18.2162 9.65606 18.3776C10.4121 18.804 11.2643 19.0309 12.1323 19.0368C11.756 19.5834 11.218 19.9985 10.5938 20.2237C9.90716 20.4901 9.17635 20.6243 8.43988 20.6191C8.05536 20.6024 7.67468 20.5354 7.30756 20.4199C6.82857 20.283 6.5796 20.2145 6.56062 20.2145C7.0008 20.9532 7.67686 21.5222 8.47989 21.8299C9.64255 22.3172 10.897 22.5468 12.1569 22.503C13.4108 22.5132 14.6547 22.2794 15.8192 21.8145C16.8931 21.3934 17.8772 20.7721 18.7193 19.9837C19.5255 19.2144 20.2209 18.3368 20.7855 17.376C21.3515 16.4274 21.786 15.4062 22.0771 14.3406C22.354 13.3335 22.4965 12.2943 22.5009 11.2498C22.5009 11.2108 22.6181 11.1278 22.8524 11.0006C23.1343 10.8439 23.408 10.6729 23.6725 10.4883C23.9473 10.3101 24.1859 10.0814 24.3756 9.81442C23.3212 9.81442 22.6181 9.83391 22.2663 9.87288C23.0606 9.30218 23.614 8.45621 23.8186 7.49979Z" fill="#0DC2FF"/>
</svg>
