<svg width="30" height="30" viewBox="0 0 30 30" fill="none" xmlns="http://www.w3.org/2000/svg">
<path d="M15 30C23.2843 30 30 23.2843 30 15C30 6.71573 23.2843 0 15 0C6.71573 0 0 6.71573 0 15C0 23.2843 6.71573 30 15 30Z" fill="#F8F8F8"/>
<path d="M29.9995 15.0003C30.0203 17.6465 29.3252 20.2491 27.9877 22.5325C26.6785 24.7976 24.7972 26.679 22.5321 27.9881C20.7653 29.0091 18.8086 29.6588 16.782 29.8972C14.7553 30.1357 12.7013 29.958 10.7457 29.3751C11.4089 28.3886 11.9219 27.3091 12.2681 26.1719C12.3853 25.7294 12.737 24.3559 13.3231 22.0514C13.6527 22.6253 14.1492 23.0851 14.7466 23.3698C15.4303 23.7393 16.196 23.9307 16.9731 23.9263C18.4868 23.946 19.9665 23.477 21.1924 22.5888C22.4685 21.6478 23.4612 20.374 24.0622 18.9068C24.7591 17.2375 25.1047 15.4426 25.0776 13.6339C25.0806 12.1604 24.6785 10.7144 23.9152 9.45402C23.0971 8.11052 21.9336 7.01096 20.5462 6.26984C19.0205 5.43547 17.3043 5.01135 15.5656 5.03895C14.268 5.02846 12.9766 5.21952 11.7375 5.6053C10.6538 5.93216 9.63347 6.44078 8.72013 7.10947C7.90704 7.71966 7.18879 8.4469 6.58876 9.26752C6.02039 10.0359 5.57935 10.8908 5.28254 11.7993C5.00725 12.6448 4.86574 13.528 4.86312 14.4172C4.83627 15.6549 5.10423 16.8812 5.64487 17.9949C6.11375 18.9736 6.9267 19.7454 7.92848 20.1628C8.31923 20.3191 8.56662 20.189 8.67065 19.7723C8.69653 19.681 8.7488 19.478 8.82746 19.1634C8.90611 18.8487 8.95838 18.6533 8.98426 18.5772C9.02259 18.4309 9.023 18.2772 8.98544 18.1307C8.94788 17.9842 8.8736 17.8497 8.76961 17.7399C8.09309 16.9091 7.7395 15.8618 7.77395 14.7909C7.76282 13.8272 7.94769 12.8714 8.31734 11.9814C8.687 11.0913 9.23371 10.2858 9.92428 9.61355C10.6148 8.94133 11.4349 8.41652 12.3345 8.07098C13.2341 7.72544 14.1946 7.56639 15.1576 7.6035C15.9919 7.55302 16.828 7.6683 17.6175 7.94267C18.407 8.21704 19.1343 8.64507 19.7576 9.20205C20.3071 9.74236 20.7377 10.3915 21.0219 11.1078C21.3061 11.8242 21.4375 12.592 21.4078 13.3621C21.4681 15.3287 21.0066 17.2761 20.0704 19.0065C19.1788 20.5559 18.037 21.3308 16.645 21.3313C16.2813 21.3445 15.9194 21.2744 15.587 21.1264C15.2545 20.9784 14.9603 20.7563 14.7268 20.4772C14.4899 20.2002 14.325 19.869 14.2467 19.513C14.1683 19.1571 14.179 18.7873 14.2777 18.4364C14.3822 17.9797 14.5547 17.3707 14.7953 16.6095C15.0358 15.8482 15.2312 15.1776 15.3814 14.5976C15.5181 14.1171 15.5948 13.6216 15.6098 13.1223C15.6314 12.5367 15.4445 11.9624 15.0823 11.5017C14.8985 11.2852 14.6671 11.1143 14.406 11.0026C14.145 10.8908 13.8616 10.8412 13.5781 10.8577C13.1715 10.8623 12.7721 10.9661 12.4147 11.1602C12.0573 11.3543 11.7527 11.6328 11.5274 11.9714C10.9485 12.7773 10.6539 13.7528 10.6901 14.7445C10.6627 15.5661 10.8302 16.3826 11.1788 17.1271L9.24536 25.2912C9.00622 26.4268 8.92071 27.5894 8.99112 28.7478C6.33748 27.5868 4.07809 25.6801 2.48741 23.2595C0.84186 20.8215 -0.0252815 17.9415 0.00056126 15.0003C-0.0197085 12.3551 0.675428 9.75356 2.01242 7.47105C3.32196 5.20441 5.20441 3.32192 7.471 2.01235C9.75346 0.675335 12.3549 -0.0198158 15 0.000454289C17.6462 -0.0203657 20.2488 0.674804 22.5321 2.01235C24.7991 3.32203 26.6818 5.2048 27.9915 7.47181C29.327 9.75448 30.0208 12.3557 29.9995 15.0003Z" fill="#E60023"/>
</svg>
