<svg width="30" height="30" viewBox="0 0 30 30" fill="none" xmlns="http://www.w3.org/2000/svg">
<path d="M15 30C23.2843 30 30 23.2843 30 15C30 6.71573 23.2843 0 15 0C6.71573 0 0 6.71573 0 15C0 23.2843 6.71573 30 15 30Z" fill="url(#paint0_linear_247_8458)"/>
<path d="M15.0005 19.1174C16.0925 19.1174 17.1399 18.6836 17.9121 17.9113C18.6843 17.1391 19.1181 16.0918 19.1181 14.9997C19.1181 13.9077 18.6843 12.8603 17.9121 12.0881C17.1399 11.3159 16.0925 10.8821 15.0005 10.8821C13.9084 10.8821 12.8611 11.3159 12.0888 12.0881C11.3166 12.8603 10.8828 13.9077 10.8828 14.9997C10.8828 16.0918 11.3166 17.1391 12.0888 17.9113C12.8611 18.6836 13.9084 19.1174 15.0005 19.1174V19.1174Z" stroke="#F8F8F8" stroke-width="2" stroke-linecap="round" stroke-linejoin="round"/>
<path d="M5.73438 19.1172V10.8819C5.73438 9.51684 6.27665 8.20766 7.24191 7.2424C8.20717 6.27714 9.51635 5.73486 10.8814 5.73486H19.1167C20.4818 5.73486 21.791 6.27714 22.7562 7.2424C23.7215 8.20766 24.2638 9.51684 24.2638 10.8819V19.1172C24.2638 20.4823 23.7215 21.7915 22.7562 22.7567C21.791 23.722 20.4818 24.2643 19.1167 24.2643H10.8814C9.51635 24.2643 8.20717 23.722 7.24191 22.7567C6.27665 21.7915 5.73438 20.4823 5.73438 19.1172Z" stroke="#F8F8F8" stroke-width="2"/>
<path d="M20.6641 9.34799L20.6744 9.33667" stroke="#F8F8F8" stroke-width="2" stroke-linecap="round" stroke-linejoin="round"/>
<defs>
<linearGradient id="paint0_linear_247_8458" x1="-0.266601" y1="30.3151" x2="23.3797" y2="5.45562" gradientUnits="userSpaceOnUse">
<stop stop-color="#FA8F21"/>
<stop offset="0.808731" stop-color="#B03495"/>
<stop offset="1" stop-color="#B03495"/>
</linearGradient>
</defs>
</svg>
