<svg width="30" height="30" viewBox="0 0 30 30" fill="none" xmlns="http://www.w3.org/2000/svg">
<g filter="url(#filter0_b_247_8459)">
<path d="M15 30C23.2843 30 30 23.2843 30 15C30 6.71573 23.2843 0 15 0C6.71573 0 0 6.71573 0 15C0 23.2843 6.71573 30 15 30Z" fill="#13111D" fill-opacity="0.36"/>
</g>
<path d="M20.8438 9.2644H10.0349C9.42064 9.2644 8.83151 9.50843 8.39714 9.9428C7.96278 10.3772 7.71875 10.9663 7.71875 11.5806V19.3012C7.71875 19.9155 7.96278 20.5046 8.39714 20.939C8.83151 21.3733 9.42064 21.6173 10.0349 21.6173H20.8438C21.458 21.6173 22.0472 21.3733 22.4815 20.939C22.9159 20.5046 23.1599 19.9155 23.1599 19.3012V11.5806C23.1599 10.9663 22.9159 10.3772 22.4815 9.9428C22.0472 9.50843 21.458 9.2644 20.8438 9.2644ZM20.5272 10.8085L15.9875 15.3482C15.9157 15.4206 15.8303 15.478 15.7363 15.5172C15.6422 15.5564 15.5413 15.5766 15.4393 15.5766C15.3374 15.5766 15.2365 15.5564 15.1424 15.5172C15.0483 15.478 14.9629 15.4206 14.8912 15.3482L10.3515 10.8085H20.5272ZM21.6158 19.3012C21.6158 19.5059 21.5345 19.7023 21.3897 19.8471C21.2449 19.9919 21.0485 20.0732 20.8438 20.0732H10.0349C9.83016 20.0732 9.63379 19.9919 9.489 19.8471C9.34421 19.7023 9.26287 19.5059 9.26287 19.3012V11.8971L13.8026 16.4368C14.2369 16.8706 14.8255 17.1142 15.4393 17.1142C16.0531 17.1142 16.6418 16.8706 17.0761 16.4368L21.6158 11.8971V19.3012Z" fill="white"/>
<defs>
<filter id="filter0_b_247_8459" x="-35" y="-35" width="100" height="100" filterUnits="userSpaceOnUse" color-interpolation-filters="sRGB">
<feFlood flood-opacity="0" result="BackgroundImageFix"/>
<feGaussianBlur in="BackgroundImage" stdDeviation="17.5"/>
<feComposite in2="SourceAlpha" operator="in" result="effect1_backgroundBlur_247_8459"/>
<feBlend mode="normal" in="SourceGraphic" in2="effect1_backgroundBlur_247_8459" result="shape"/>
</filter>
</defs>
</svg>
