<svg width="8" height="14" viewBox="0 0 8 14" fill="none" xmlns="http://www.w3.org/2000/svg">
<path d="M0.457333 6.29004L6.11733 0.640037C6.2103 0.546308 6.3209 0.471914 6.44276 0.421145C6.56461 0.370377 6.69532 0.344238 6.82733 0.344238C6.95934 0.344238 7.09005 0.370377 7.21191 0.421145C7.33377 0.471914 7.44437 0.546308 7.53733 0.640037C7.72358 0.827399 7.82812 1.08085 7.82812 1.34504C7.82812 1.60922 7.72358 1.86267 7.53733 2.05004L2.58733 7.05004L7.53733 12C7.72358 12.1874 7.82812 12.4409 7.82812 12.705C7.82812 12.9692 7.72358 13.2227 7.53733 13.41C7.44472 13.5045 7.33427 13.5797 7.2124 13.6312C7.09052 13.6827 6.95964 13.7095 6.82733 13.71C6.69503 13.7095 6.56414 13.6827 6.44227 13.6312C6.32039 13.5797 6.20995 13.5045 6.11733 13.41L0.457333 7.76004C0.355828 7.66639 0.274819 7.55274 0.219412 7.42624C0.164005 7.29974 0.1354 7.16314 0.1354 7.02504C0.1354 6.88693 0.164005 6.75033 0.219412 6.62383C0.274819 6.49733 0.355828 6.38368 0.457333 6.29004V6.29004Z" fill="#13111D" fill-opacity="0.98"/>
</svg>
