<svg width="13" height="8" viewBox="0 0 13 8" fill="none" xmlns="http://www.w3.org/2000/svg">
<path d="M10.2941 0.294091L6.00409 4.59409L1.71409 0.294091C1.52579 0.105788 1.27039 0 1.00409 0C0.73779 0 0.482395 0.105788 0.294092 0.294091C0.105788 0.482395 0 0.73779 0 1.00409C0 1.27039 0.105788 1.52579 0.294092 1.71409L5.29409 6.71409C5.38705 6.80782 5.49766 6.88221 5.61951 6.93298C5.74137 6.98375 5.87208 7.00989 6.00409 7.00989C6.1361 7.00989 6.26681 6.98375 6.38867 6.93298C6.51053 6.88221 6.62113 6.80782 6.71409 6.71409L11.7141 1.71409C11.8073 1.62085 11.8813 1.51016 11.9318 1.38834C11.9822 1.26652 12.0082 1.13595 12.0082 1.00409C12.0082 0.872232 11.9822 0.741664 11.9318 0.619842C11.8813 0.49802 11.8073 0.38733 11.7141 0.294091C11.6209 0.200853 11.5102 0.126892 11.3883 0.0764313C11.2665 0.0259709 11.136 0 11.0041 0C10.8722 0 10.7417 0.0259709 10.6198 0.0764313C10.498 0.126892 10.3873 0.200853 10.2941 0.294091Z" fill="#AAA9AE"/>
</svg>
