<svg width="19" height="13" viewBox="0 0 19 13" fill="none" xmlns="http://www.w3.org/2000/svg">
<path d="M17.6489 5.20833H1.15582C0.537326 5.20833 0.125 5.625 0.125 6.25C0.125 6.875 0.537326 7.29167 1.15582 7.29167H17.6489C18.2674 7.29167 18.6797 6.875 18.6797 6.25C18.6797 5.625 18.2674 5.20833 17.6489 5.20833ZM1.15582 2.08333H17.6489C18.2674 2.08333 18.6797 1.66667 18.6797 1.04167C18.6797 0.416667 18.2674 0 17.6489 0H1.15582C0.537326 0 0.125 0.416667 0.125 1.04167C0.125 1.66667 0.537326 2.08333 1.15582 2.08333ZM17.6489 10.4167H1.15582C0.537326 10.4167 0.125 10.8333 0.125 11.4583C0.125 12.0833 0.537326 12.5 1.15582 12.5H17.6489C18.2674 12.5 18.6797 12.0833 18.6797 11.4583C18.6797 10.8333 18.2674 10.4167 17.6489 10.4167Z" fill="#181622"/>
</svg>
