<svg width="15" height="15" viewBox="0 0 15 15" fill="none" xmlns="http://www.w3.org/2000/svg">
<path d="M1.92854 0.991759H2.60765V9.89739H1.92854C1.56831 9.89739 1.22284 9.75303 0.968127 9.49607C0.713411 9.2391 0.570313 8.89058 0.570313 8.52717V2.36357C0.570106 2.1835 0.605084 2.00515 0.673248 1.83872C0.741412 1.6723 0.841425 1.52106 0.967568 1.39365C1.09371 1.26624 1.24351 1.16517 1.4084 1.09621C1.57329 1.02725 1.75004 0.991759 1.92854 0.991759ZM12.7935 9.89739H8.04054L8.80266 12.2048C8.87067 12.4107 8.8892 12.6301 8.85672 12.8447C8.82424 13.0593 8.74167 13.263 8.61582 13.4391C8.48998 13.6152 8.32445 13.7587 8.13289 13.8576C7.94132 13.9565 7.7292 14.0081 7.51401 14.0081H7.36142L3.96587 10.2826V0.991759H11.4361L14.0925 6.881L14.1525 7.15775V8.52717C14.1525 8.70718 14.1174 8.88542 14.0491 9.05172C13.9808 9.21801 13.8806 9.3691 13.7544 9.49635C13.6282 9.6236 13.4784 9.72451 13.3135 9.79332C13.1487 9.86214 12.972 9.8975 12.7935 9.89739Z" fill="#AAA9AE"/>
</svg>
