<svg width="14" height="15" viewBox="0 0 14 15" fill="none" xmlns="http://www.w3.org/2000/svg">
<path d="M1.35822 14.0082H2.03733V5.10261H1.35822C0.998 5.10261 0.652531 5.24697 0.397815 5.50393C0.143099 5.7609 9.20439e-07 6.10942 9.20439e-07 6.47283V12.6364C-0.000206876 12.8165 0.0347712 12.9948 0.102935 13.1613C0.171099 13.3277 0.271112 13.4789 0.397256 13.6063C0.523399 13.7338 0.673198 13.8348 0.838089 13.9038C1.00298 13.9727 1.17973 14.0082 1.35822 14.0082ZM12.2232 5.10261H7.47022L8.23234 2.79524C8.30036 2.58927 8.31889 2.36995 8.28641 2.15534C8.25393 1.94072 8.17136 1.73697 8.04551 1.56086C7.91966 1.38476 7.75414 1.24134 7.56258 1.14243C7.37101 1.04351 7.15889 0.991935 6.94369 0.991943H6.79111L3.39556 4.71738V14.0082H10.8658L13.5221 8.119L13.5822 7.84225V6.47283C13.5822 6.29282 13.5471 6.11458 13.4788 5.94828C13.4105 5.78199 13.3103 5.6309 13.1841 5.50365C13.0579 5.3764 12.9081 5.27549 12.7432 5.20668C12.5783 5.13786 12.4016 5.1025 12.2232 5.10261Z" fill="#181622"/>
</svg>
