<svg width="105" height="21" viewBox="0 0 105 21" fill="none" xmlns="http://www.w3.org/2000/svg">
<path d="M5.55004 15.3214C3.96432 15.3214 2.66222 14.9378 1.64374 14.1706C0.625266 13.3902 0.0773525 12.2791 0 10.8373H4.04167C4.08035 11.3267 4.22216 11.6839 4.46711 11.9087C4.71206 12.1336 5.02791 12.246 5.41468 12.246C5.76276 12.246 6.04639 12.1601 6.26555 11.9881C6.49761 11.8029 6.61364 11.5516 6.61364 11.2341C6.61364 10.8241 6.42671 10.5066 6.05283 10.2817C5.67896 10.0569 5.07304 9.80556 4.23505 9.52778C3.3455 9.22354 2.62354 8.93254 2.06918 8.65476C1.52771 8.36376 1.05071 7.94709 0.638158 7.40476C0.238504 6.84921 0.0386763 6.12831 0.0386763 5.24206C0.0386763 4.34259 0.257842 3.5754 0.696173 2.94048C1.1345 2.29233 1.74043 1.80291 2.51396 1.47222C3.28748 1.14153 4.16414 0.97619 5.14394 0.97619C6.72967 0.97619 7.99309 1.35979 8.93422 2.12698C9.88823 2.88095 10.3975 3.94577 10.4619 5.32143H6.34291C6.33001 4.89815 6.20109 4.58069 5.95614 4.36905C5.72409 4.15741 5.42112 4.05159 5.04725 4.05159C4.76363 4.05159 4.53157 4.13757 4.35108 4.30952C4.17059 4.48148 4.08035 4.72619 4.08035 5.04365C4.08035 5.3082 4.17704 5.53968 4.37042 5.73809C4.57669 5.92328 4.82809 6.08862 5.1246 6.23413C5.42112 6.3664 5.85945 6.53836 6.4396 6.75C7.30337 7.05423 8.01243 7.35846 8.56679 7.6627C9.13404 7.9537 9.6175 8.37037 10.0172 8.9127C10.4297 9.4418 10.636 10.1164 10.636 10.9365C10.636 11.7698 10.4297 12.5172 10.0172 13.1786C9.6175 13.8399 9.03091 14.3624 8.25738 14.746C7.49675 15.1296 6.5943 15.3214 5.55004 15.3214Z" fill="url(#paint0_linear_331_2285)"/>
<path d="M19.5338 3.95238C20.7714 3.95238 21.7512 4.38227 22.4732 5.24206C23.208 6.08862 23.5754 7.23942 23.5754 8.69444V15.1825H19.7852V9.21032C19.7852 8.5754 19.624 8.07936 19.3017 7.72222C18.9794 7.35185 18.5475 7.16667 18.0061 7.16667C17.4388 7.16667 16.994 7.35185 16.6717 7.72222C16.3494 8.07936 16.1883 8.5754 16.1883 9.21032V15.1825H12.398V0.5H16.1883V5.63889C16.5235 5.13624 16.9747 4.7328 17.542 4.42857C18.1221 4.11111 18.786 3.95238 19.5338 3.95238Z" fill="url(#paint1_linear_331_2285)"/>
<path d="M30.7025 15.3214C29.6195 15.3214 28.6462 15.0899 27.7824 14.627C26.9315 14.164 26.2611 13.5026 25.7712 12.6429C25.2813 11.7831 25.0364 10.7712 25.0364 9.60714C25.0364 8.45635 25.2813 7.45106 25.7712 6.59127C26.274 5.73148 26.9509 5.07011 27.8017 4.60714C28.6655 4.14418 29.6389 3.9127 30.7218 3.9127C31.8047 3.9127 32.7716 4.14418 33.6225 4.60714C34.4863 5.07011 35.1631 5.73148 35.653 6.59127C36.1558 7.45106 36.4072 8.45635 36.4072 9.60714C36.4072 10.7579 36.1558 11.7698 35.653 12.6429C35.1631 13.5026 34.4863 14.164 33.6225 14.627C32.7587 15.0899 31.7854 15.3214 30.7025 15.3214ZM30.7025 11.9484C31.231 11.9484 31.6694 11.75 32.0174 11.3532C32.3784 10.9431 32.5589 10.3611 32.5589 9.60714C32.5589 8.85317 32.3784 8.27778 32.0174 7.88095C31.6694 7.48413 31.2375 7.28571 30.7218 7.28571C30.2061 7.28571 29.7742 7.48413 29.4261 7.88095C29.0781 8.27778 28.904 8.85317 28.904 9.60714C28.904 10.3743 29.0716 10.9563 29.4068 11.3532C29.742 11.75 30.1739 11.9484 30.7025 11.9484Z" fill="url(#paint2_linear_331_2285)"/>
<path d="M41.7395 5.59921C42.0361 5.08333 42.4551 4.67328 42.9965 4.36905C43.538 4.06481 44.1761 3.9127 44.911 3.9127C45.7748 3.9127 46.5547 4.14418 47.2509 4.60714C47.96 5.07011 48.5143 5.73148 48.914 6.59127C49.3265 7.45106 49.5328 8.45635 49.5328 9.60714C49.5328 10.7579 49.3265 11.7698 48.914 12.6429C48.5143 13.5026 47.96 14.164 47.2509 14.627C46.5547 15.0899 45.7748 15.3214 44.911 15.3214C44.1761 15.3214 43.538 15.1693 42.9965 14.8651C42.4679 14.5608 42.049 14.1508 41.7395 13.6349V20.5H37.9493V4.05159H41.7395V5.59921ZM45.6845 9.60714C45.6845 8.87963 45.4911 8.31746 45.1044 7.92063C44.7305 7.51058 44.2664 7.30556 43.712 7.30556C43.1577 7.30556 42.6871 7.51058 42.3003 7.92063C41.9265 8.33069 41.7395 8.89286 41.7395 9.60714C41.7395 10.3347 41.9265 10.9034 42.3003 11.3135C42.6871 11.7235 43.1577 11.9286 43.712 11.9286C44.2664 11.9286 44.7305 11.7235 45.1044 11.3135C45.4911 10.8902 45.6845 10.3214 45.6845 9.60714Z" fill="url(#paint3_linear_331_2285)"/>
<path d="M61.8645 5.85714C61.8645 6.7037 61.6711 7.47751 61.2843 8.17857C60.9105 8.8664 60.3368 9.42196 59.5632 9.84524C58.8026 10.2553 57.8679 10.4603 56.7592 10.4603H54.8834V15.1825H51.0932V1.19444H56.7592C57.8551 1.19444 58.7833 1.39286 59.5439 1.78968C60.3174 2.18651 60.8976 2.73545 61.2843 3.43651C61.6711 4.13757 61.8645 4.94444 61.8645 5.85714ZM56.3918 7.36508C57.4618 7.36508 57.9969 6.86243 57.9969 5.85714C57.9969 4.83862 57.4618 4.32936 56.3918 4.32936H54.8834V7.36508H56.3918Z" fill="url(#paint4_linear_331_2285)"/>
<path d="M62.7684 9.60714C62.7684 8.45635 62.9682 7.45106 63.3679 6.59127C63.7804 5.73148 64.3348 5.07011 65.031 4.60714C65.74 4.14418 66.5264 3.9127 67.3902 3.9127C68.1379 3.9127 68.7826 4.06481 69.324 4.36905C69.8655 4.67328 70.2845 5.08333 70.581 5.59921V4.05159H74.3713V15.1825H70.581V13.6349C70.2845 14.1508 69.859 14.5608 69.3047 14.8651C68.7632 15.1693 68.1251 15.3214 67.3902 15.3214C66.5264 15.3214 65.74 15.0899 65.031 14.627C64.3348 14.164 63.7804 13.5026 63.3679 12.6429C62.9682 11.7698 62.7684 10.7579 62.7684 9.60714ZM70.581 9.60714C70.581 8.89286 70.3876 8.33069 70.0009 7.92063C69.627 7.51058 69.1629 7.30556 68.6085 7.30556C68.0413 7.30556 67.5707 7.51058 67.1968 7.92063C66.823 8.31746 66.636 8.87963 66.636 9.60714C66.636 10.3214 66.823 10.8902 67.1968 11.3135C67.5707 11.7235 68.0413 11.9286 68.6085 11.9286C69.1629 11.9286 69.627 11.7235 70.0009 11.3135C70.3876 10.9034 70.581 10.3347 70.581 9.60714Z" fill="url(#paint5_linear_331_2285)"/>
<path d="M80.3214 6.01587C80.7468 5.38095 81.2625 4.87831 81.8684 4.50794C82.4743 4.13757 83.1254 3.95238 83.8216 3.95238V8.09921H82.758C81.9329 8.09921 81.3205 8.26455 80.9209 8.59524C80.5212 8.92593 80.3214 9.50132 80.3214 10.3214V15.1825H76.5311V4.05159H80.3214V6.01587Z" fill="url(#paint6_linear_331_2285)"/>
<path d="M91.5813 11.869V15.1825H89.9376C87.1658 15.1825 85.7799 13.7738 85.7799 10.9563V7.28571H84.4455V4.05159H85.7799V1.35317H89.5895V4.05159H91.562V7.28571H89.5895V11.0159C89.5895 11.3201 89.6539 11.5384 89.7829 11.6706C89.9247 11.8029 90.1567 11.869 90.479 11.869H91.5813Z" fill="url(#paint7_linear_331_2285)"/>
<path d="M105 4.05159L98.1156 20.4802H93.9966L96.5879 14.7063L92.1401 4.05159H96.3559L98.6378 10.3611L100.842 4.05159H105Z" fill="url(#paint8_linear_331_2285)"/>
<defs>
<linearGradient id="paint0_linear_331_2285" x1="108.952" y1="-19.8991" x2="-9.25192" y2="-1.39232" gradientUnits="userSpaceOnUse">
<stop stop-color="#F9437E"/>
<stop offset="1" stop-color="#D543F9"/>
</linearGradient>
<linearGradient id="paint1_linear_331_2285" x1="108.952" y1="-19.8991" x2="-9.25192" y2="-1.39232" gradientUnits="userSpaceOnUse">
<stop stop-color="#F9437E"/>
<stop offset="1" stop-color="#D543F9"/>
</linearGradient>
<linearGradient id="paint2_linear_331_2285" x1="108.952" y1="-19.8991" x2="-9.25192" y2="-1.39232" gradientUnits="userSpaceOnUse">
<stop stop-color="#F9437E"/>
<stop offset="1" stop-color="#D543F9"/>
</linearGradient>
<linearGradient id="paint3_linear_331_2285" x1="108.952" y1="-19.8991" x2="-9.25192" y2="-1.39232" gradientUnits="userSpaceOnUse">
<stop stop-color="#F9437E"/>
<stop offset="1" stop-color="#D543F9"/>
</linearGradient>
<linearGradient id="paint4_linear_331_2285" x1="108.952" y1="-19.8991" x2="-9.25192" y2="-1.39232" gradientUnits="userSpaceOnUse">
<stop stop-color="#F9437E"/>
<stop offset="1" stop-color="#D543F9"/>
</linearGradient>
<linearGradient id="paint5_linear_331_2285" x1="108.952" y1="-19.8991" x2="-9.25192" y2="-1.39232" gradientUnits="userSpaceOnUse">
<stop stop-color="#F9437E"/>
<stop offset="1" stop-color="#D543F9"/>
</linearGradient>
<linearGradient id="paint6_linear_331_2285" x1="108.952" y1="-19.8991" x2="-9.25192" y2="-1.39232" gradientUnits="userSpaceOnUse">
<stop stop-color="#F9437E"/>
<stop offset="1" stop-color="#D543F9"/>
</linearGradient>
<linearGradient id="paint7_linear_331_2285" x1="108.952" y1="-19.8991" x2="-9.25192" y2="-1.39232" gradientUnits="userSpaceOnUse">
<stop stop-color="#F9437E"/>
<stop offset="1" stop-color="#D543F9"/>
</linearGradient>
<linearGradient id="paint8_linear_331_2285" x1="108.952" y1="-19.8991" x2="-9.25192" y2="-1.39232" gradientUnits="userSpaceOnUse">
<stop stop-color="#F9437E"/>
<stop offset="1" stop-color="#D543F9"/>
</linearGradient>
</defs>
</svg>
