<svg width="25" height="26" viewBox="0 0 25 26" fill="none" xmlns="http://www.w3.org/2000/svg">
<circle cx="12.5" cy="13.0742" r="12.1342" stroke="#848389" stroke-width="0.731579"/>
<path d="M7.71414 10.0602V12.8768H11.4218V13.5323H7.71414V16.5742H6.95622V9.40474H11.8724V10.0602H7.71414ZM16.0595 11.1459C16.5648 11.1459 17.0223 11.262 17.432 11.4941C17.8417 11.7195 18.1626 12.0404 18.3947 12.4569C18.6269 12.8734 18.743 13.348 18.743 13.8805C18.743 14.4131 18.6269 14.8877 18.3947 15.3042C18.1626 15.7207 17.8417 16.045 17.432 16.2772C17.0223 16.5094 16.5648 16.6254 16.0595 16.6254C15.6089 16.6254 15.2026 16.5298 14.8407 16.3387C14.4857 16.1475 14.1989 15.8709 13.9804 15.509V16.5742H13.2839V8.97458H14.0111V12.2111C14.2364 11.8628 14.5232 11.6 14.8714 11.4224C15.2265 11.2381 15.6225 11.1459 16.0595 11.1459ZM16.0083 15.9802C16.3839 15.9802 16.7253 15.8948 17.0325 15.7241C17.3398 15.5466 17.5788 15.2974 17.7495 14.9765C17.927 14.6555 18.0158 14.2902 18.0158 13.8805C18.0158 13.4709 17.927 13.1056 17.7495 12.7846C17.5788 12.4637 17.3398 12.2179 17.0325 12.0472C16.7253 11.8697 16.3839 11.7809 16.0083 11.7809C15.6259 11.7809 15.2811 11.8697 14.9739 12.0472C14.6734 12.2179 14.4345 12.4637 14.2569 12.7846C14.0862 13.1056 14.0009 13.4709 14.0009 13.8805C14.0009 14.2902 14.0862 14.6555 14.2569 14.9765C14.4345 15.2974 14.6734 15.5466 14.9739 15.7241C15.2811 15.8948 15.6259 15.9802 16.0083 15.9802Z" fill="#848389"/>
</svg>
