<svg width="25" height="26" viewBox="0 0 25 26" fill="none" xmlns="http://www.w3.org/2000/svg">
<circle cx="12.5" cy="13.0742" r="12.1342" stroke="#848389" stroke-width="0.731579"/>
<path d="M8.65657 9.40474H9.41449V16.5742H8.65657V9.40474ZM14.3385 11.1459C15.0144 11.1459 15.5504 11.3439 15.9465 11.7399C16.3493 12.1291 16.5508 12.6993 16.5508 13.4504V16.5742H15.8236V13.5221C15.8236 12.9622 15.6836 12.5354 15.4036 12.2418C15.1237 11.9482 14.7242 11.8014 14.2053 11.8014C13.6249 11.8014 13.164 11.9755 12.8226 12.3237C12.4881 12.6651 12.3208 13.1397 12.3208 13.7474V16.5742H11.5936V11.1869H12.29V12.1804C12.4881 11.8526 12.7612 11.6 13.1094 11.4224C13.4645 11.2381 13.8741 11.1459 14.3385 11.1459Z" fill="#848389"/>
</svg>
