<svg width="120" height="22" viewBox="0 0 120 22" fill="none" xmlns="http://www.w3.org/2000/svg">
<path d="M5.526 17.108C4.59 17.108 3.69 16.958 2.826 16.658C1.974 16.358 1.314 15.962 0.846 15.47L1.368 14.444C1.824 14.9 2.43 15.272 3.186 15.56C3.942 15.836 4.722 15.974 5.526 15.974C6.654 15.974 7.5 15.77 8.064 15.362C8.628 14.942 8.91 14.402 8.91 13.742C8.91 13.238 8.754 12.836 8.442 12.536C8.142 12.236 7.77 12.008 7.326 11.852C6.882 11.684 6.264 11.504 5.472 11.312C4.524 11.072 3.768 10.844 3.204 10.628C2.64 10.4 2.154 10.058 1.746 9.602C1.35 9.146 1.152 8.528 1.152 7.748C1.152 7.112 1.32 6.536 1.656 6.02C1.992 5.492 2.508 5.072 3.204 4.76C3.9 4.448 4.764 4.292 5.796 4.292C6.516 4.292 7.218 4.394 7.902 4.598C8.598 4.79 9.198 5.06 9.702 5.408L9.252 6.47C8.724 6.122 8.16 5.864 7.56 5.696C6.96 5.516 6.372 5.426 5.796 5.426C4.692 5.426 3.858 5.642 3.294 6.074C2.742 6.494 2.466 7.04 2.466 7.712C2.466 8.216 2.616 8.624 2.916 8.936C3.228 9.236 3.612 9.47 4.068 9.638C4.536 9.794 5.16 9.968 5.94 10.16C6.864 10.388 7.608 10.616 8.172 10.844C8.748 11.06 9.234 11.396 9.63 11.852C10.026 12.296 10.224 12.902 10.224 13.67C10.224 14.306 10.05 14.888 9.702 15.416C9.366 15.932 8.844 16.346 8.136 16.658C7.428 16.958 6.558 17.108 5.526 17.108ZM17.6802 7.46C18.8682 7.46 19.8102 7.808 20.5062 8.504C21.2142 9.188 21.5682 10.19 21.5682 11.51V17H20.2902V11.636C20.2902 10.652 20.0442 9.902 19.5522 9.386C19.0602 8.87 18.3582 8.612 17.4462 8.612C16.4262 8.612 15.6162 8.918 15.0162 9.53C14.4282 10.13 14.1342 10.964 14.1342 12.032V17H12.8562V3.644H14.1342V9.188C14.4822 8.636 14.9622 8.21 15.5742 7.91C16.1862 7.61 16.8882 7.46 17.6802 7.46ZM28.943 17.09C28.031 17.09 27.209 16.886 26.477 16.478C25.745 16.058 25.169 15.482 24.749 14.75C24.329 14.018 24.119 13.19 24.119 12.266C24.119 11.342 24.329 10.514 24.749 9.782C25.169 9.05 25.745 8.48 26.477 8.072C27.209 7.664 28.031 7.46 28.943 7.46C29.855 7.46 30.677 7.664 31.409 8.072C32.141 8.48 32.711 9.05 33.119 9.782C33.539 10.514 33.749 11.342 33.749 12.266C33.749 13.19 33.539 14.018 33.119 14.75C32.711 15.482 32.141 16.058 31.409 16.478C30.677 16.886 29.855 17.09 28.943 17.09ZM28.943 15.956C29.615 15.956 30.215 15.806 30.743 15.506C31.283 15.194 31.703 14.756 32.003 14.192C32.303 13.628 32.453 12.986 32.453 12.266C32.453 11.546 32.303 10.904 32.003 10.34C31.703 9.776 31.283 9.344 30.743 9.044C30.215 8.732 29.615 8.576 28.943 8.576C28.271 8.576 27.665 8.732 27.125 9.044C26.597 9.344 26.177 9.776 25.865 10.34C25.565 10.904 25.415 11.546 25.415 12.266C25.415 12.986 25.565 13.628 25.865 14.192C26.177 14.756 26.597 15.194 27.125 15.506C27.665 15.806 28.271 15.956 28.943 15.956ZM41.2362 7.46C42.1242 7.46 42.9282 7.664 43.6482 8.072C44.3682 8.468 44.9322 9.032 45.3402 9.764C45.7482 10.496 45.9522 11.33 45.9522 12.266C45.9522 13.214 45.7482 14.054 45.3402 14.786C44.9322 15.518 44.3682 16.088 43.6482 16.496C42.9402 16.892 42.1362 17.09 41.2362 17.09C40.4682 17.09 39.7722 16.934 39.1482 16.622C38.5362 16.298 38.0322 15.83 37.6362 15.218V20.492H36.3582V7.532H37.5822V9.404C37.9662 8.78 38.4702 8.3 39.0942 7.964C39.7302 7.628 40.4442 7.46 41.2362 7.46ZM41.1462 15.956C41.8062 15.956 42.4062 15.806 42.9462 15.506C43.4862 15.194 43.9062 14.756 44.2062 14.192C44.5182 13.628 44.6742 12.986 44.6742 12.266C44.6742 11.546 44.5182 10.91 44.2062 10.358C43.9062 9.794 43.4862 9.356 42.9462 9.044C42.4062 8.732 41.8062 8.576 41.1462 8.576C40.4742 8.576 39.8682 8.732 39.3282 9.044C38.8002 9.356 38.3802 9.794 38.0682 10.358C37.7682 10.91 37.6182 11.546 37.6182 12.266C37.6182 12.986 37.7682 13.628 38.0682 14.192C38.3802 14.756 38.8002 15.194 39.3282 15.506C39.8682 15.806 40.4742 15.956 41.1462 15.956ZM53.5434 4.4C55.1514 4.4 56.4114 4.784 57.3234 5.552C58.2354 6.32 58.6914 7.376 58.6914 8.72C58.6914 10.064 58.2354 11.12 57.3234 11.888C56.4114 12.644 55.1514 13.022 53.5434 13.022H50.1594V17H48.8274V4.4H53.5434ZM53.5074 11.852C54.7554 11.852 55.7094 11.582 56.3694 11.042C57.0294 10.49 57.3594 9.716 57.3594 8.72C57.3594 7.7 57.0294 6.92 56.3694 6.38C55.7094 5.828 54.7554 5.552 53.5074 5.552H50.1594V11.852H53.5074ZM64.5256 7.46C65.7616 7.46 66.7096 7.772 67.3696 8.396C68.0296 9.008 68.3596 9.92 68.3596 11.132V17H67.1356V15.524C66.8476 16.016 66.4216 16.4 65.8576 16.676C65.3056 16.952 64.6456 17.09 63.8776 17.09C62.8216 17.09 61.9816 16.838 61.3576 16.334C60.7336 15.83 60.4216 15.164 60.4216 14.336C60.4216 13.532 60.7096 12.884 61.2856 12.392C61.8736 11.9 62.8036 11.654 64.0756 11.654H67.0816V11.078C67.0816 10.262 66.8536 9.644 66.3976 9.224C65.9416 8.792 65.2756 8.576 64.3996 8.576C63.7996 8.576 63.2236 8.678 62.6716 8.882C62.1196 9.074 61.6456 9.344 61.2496 9.692L60.6736 8.738C61.1536 8.33 61.7296 8.018 62.4016 7.802C63.0736 7.574 63.7816 7.46 64.5256 7.46ZM64.0756 16.082C64.7956 16.082 65.4136 15.92 65.9296 15.596C66.4456 15.26 66.8296 14.78 67.0816 14.156V12.608H64.1116C62.4916 12.608 61.6816 13.172 61.6816 14.3C61.6816 14.852 61.8916 15.29 62.3116 15.614C62.7316 15.926 63.3196 16.082 64.0756 16.082ZM73.0548 9.386C73.3548 8.75 73.7988 8.27 74.3868 7.946C74.9868 7.622 75.7248 7.46 76.6008 7.46V8.702L76.2948 8.684C75.2988 8.684 74.5188 8.99 73.9548 9.602C73.3908 10.214 73.1088 11.072 73.1088 12.176V17H71.8308V7.532H73.0548V9.386ZM84.3051 16.424C84.0651 16.64 83.7651 16.808 83.4051 16.928C83.0571 17.036 82.6911 17.09 82.3071 17.09C81.4191 17.09 80.7351 16.85 80.2551 16.37C79.7751 15.89 79.5351 15.212 79.5351 14.336V8.612H77.8431V7.532H79.5351V5.462H80.8131V7.532H83.6931V8.612H80.8131V14.264C80.8131 14.828 80.9511 15.26 81.2271 15.56C81.5151 15.848 81.9231 15.992 82.4511 15.992C82.7151 15.992 82.9671 15.95 83.2071 15.866C83.4591 15.782 83.6751 15.662 83.8551 15.506L84.3051 16.424ZM94.4118 7.532L89.6778 18.134C89.2938 19.022 88.8498 19.652 88.3458 20.024C87.8418 20.396 87.2358 20.582 86.5278 20.582C86.0718 20.582 85.6458 20.51 85.2498 20.366C84.8538 20.222 84.5118 20.006 84.2238 19.718L84.8178 18.764C85.2978 19.244 85.8738 19.484 86.5458 19.484C86.9778 19.484 87.3438 19.364 87.6438 19.124C87.9558 18.884 88.2438 18.476 88.5078 17.9L88.9218 16.982L84.6918 7.532H86.0238L89.5878 15.578L93.1518 7.532H94.4118Z" fill="#848389"/>
<path d="M100.049 9.79158C99.8299 9.79158 99.6458 9.71687 99.4963 9.56743C99.3469 9.418 99.2722 9.23121 99.2722 9.00707C99.2722 8.77758 99.3469 8.59346 99.4963 8.45471C99.6458 8.31061 99.8299 8.23857 100.049 8.23857C100.267 8.23857 100.452 8.31061 100.601 8.45471C100.75 8.59346 100.825 8.77758 100.825 9.00707C100.825 9.23121 100.75 9.418 100.601 9.56743C100.452 9.71687 100.267 9.79158 100.049 9.79158ZM103.698 9.79158C103.239 9.79158 102.826 9.69819 102.457 9.5114C102.094 9.31927 101.809 9.0551 101.601 8.71888C101.398 8.38266 101.297 8.00108 101.297 7.57413C101.297 7.14718 101.398 6.7656 101.601 6.42938C101.809 6.09316 102.094 5.83166 102.457 5.64487C102.826 5.45274 103.239 5.35668 103.698 5.35668C104.152 5.35668 104.547 5.45274 104.883 5.64487C105.224 5.83166 105.473 6.10117 105.627 6.4534L104.659 6.97374C104.435 6.57881 104.112 6.38135 103.69 6.38135C103.365 6.38135 103.095 6.48809 102.882 6.70156C102.668 6.91503 102.561 7.20589 102.561 7.57413C102.561 7.94237 102.668 8.23323 102.882 8.4467C103.095 8.66017 103.365 8.76691 103.69 8.76691C104.117 8.76691 104.44 8.56945 104.659 8.17452L105.627 8.70287C105.473 9.04443 105.224 9.31127 104.883 9.50339C104.547 9.69552 104.152 9.79158 103.698 9.79158ZM108.341 9.79158C107.887 9.79158 107.479 9.69819 107.116 9.5114C106.759 9.31927 106.478 9.0551 106.276 8.71888C106.073 8.38266 105.971 8.00108 105.971 7.57413C105.971 7.14718 106.073 6.7656 106.276 6.42938C106.478 6.09316 106.759 5.83166 107.116 5.64487C107.479 5.45274 107.887 5.35668 108.341 5.35668C108.795 5.35668 109.2 5.45274 109.558 5.64487C109.915 5.83166 110.196 6.09316 110.398 6.42938C110.601 6.7656 110.703 7.14718 110.703 7.57413C110.703 8.00108 110.601 8.38266 110.398 8.71888C110.196 9.0551 109.915 9.31927 109.558 9.5114C109.2 9.69819 108.795 9.79158 108.341 9.79158ZM108.341 8.76691C108.661 8.76691 108.923 8.66017 109.126 8.4467C109.334 8.22789 109.438 7.93703 109.438 7.57413C109.438 7.21123 109.334 6.92304 109.126 6.70957C108.923 6.49076 108.661 6.38135 108.341 6.38135C108.021 6.38135 107.757 6.49076 107.549 6.70957C107.34 6.92304 107.236 7.21123 107.236 7.57413C107.236 7.93703 107.34 8.22789 107.549 8.4467C107.757 8.66017 108.021 8.76691 108.341 8.76691ZM117.053 5.35668C117.592 5.35668 118.019 5.51678 118.334 5.83699C118.654 6.15187 118.814 6.62684 118.814 7.26193V9.72754H117.565V7.45405C117.565 7.1125 117.493 6.859 117.349 6.69355C117.21 6.52278 117.01 6.43739 116.749 6.43739C116.455 6.43739 116.223 6.53345 116.052 6.72558C115.881 6.91236 115.796 7.19255 115.796 7.56613V9.72754H114.547V7.45405C114.547 6.77628 114.275 6.43739 113.731 6.43739C113.443 6.43739 113.213 6.53345 113.042 6.72558C112.872 6.91236 112.786 7.19255 112.786 7.56613V9.72754H111.537V5.42072H112.73V5.91705C112.89 5.73559 113.085 5.59684 113.314 5.50077C113.549 5.40471 113.805 5.35668 114.083 5.35668C114.387 5.35668 114.662 5.41805 114.908 5.5408C115.153 5.65821 115.35 5.83166 115.5 6.06114C115.676 5.83699 115.898 5.66355 116.164 5.5408C116.437 5.41805 116.733 5.35668 117.053 5.35668Z" fill="#848389"/>
</svg>
