<svg width="26" height="26" viewBox="0 0 26 26" fill="none" xmlns="http://www.w3.org/2000/svg">
<path d="M2.66761 19.3416C1.18645 16.8247 0.667733 13.8493 1.20887 10.9742C1.75 8.09907 3.31376 5.52195 5.60651 3.72678C7.89926 1.93161 10.7633 1.04187 13.6608 1.22464C16.5582 1.40741 19.2899 2.65011 21.3427 4.7194C23.3956 6.78869 24.6284 9.54221 24.8097 12.4629C24.9911 15.3836 24.1084 18.2706 22.3275 20.5817C20.5466 22.8929 17.99 24.4692 15.1378 25.0147C12.2855 25.5602 9.33377 25.0373 6.83687 23.5443L2.71945 24.73C2.5491 24.7791 2.36883 24.7813 2.19732 24.7365C2.02582 24.6917 1.86932 24.6015 1.74404 24.4752C1.61876 24.3489 1.52927 24.1912 1.48483 24.0183C1.44039 23.8454 1.44262 23.6637 1.49129 23.492L2.66761 19.3416Z" stroke="#AAA9AE" stroke-width="0.72449" stroke-linecap="round" stroke-linejoin="round"/>
<path d="M15.9175 20.2179C14.6105 20.2198 13.3159 19.9616 12.1081 19.4583C10.9002 18.955 9.80272 18.2164 8.87852 17.2848C7.95433 16.3532 7.22159 15.2469 6.72228 14.0294C6.22297 12.8118 5.9669 11.5069 5.96876 10.1895C5.97172 9.26212 6.33945 8.37382 6.9913 7.71941C7.64314 7.06501 8.52587 6.69794 9.44586 6.69873C9.59675 6.69873 9.74497 6.73894 9.87548 6.81529C10.006 6.89163 10.1142 7.0014 10.189 7.13347L11.6408 9.69451C11.7284 9.84896 11.7736 10.0241 11.7717 10.202C11.7698 10.3799 11.721 10.554 11.6302 10.7066L10.4642 12.6654C11.0641 14.0073 12.13 15.0817 13.4612 15.6864L15.4045 14.5111C15.5558 14.4196 15.7286 14.3704 15.905 14.3685C16.0815 14.3666 16.2553 14.4121 16.4085 14.5004L18.9492 15.9638C19.0802 16.0393 19.1891 16.1483 19.2648 16.2799C19.3405 16.4114 19.3804 16.5608 19.3804 16.7129C19.3778 17.6392 19.0126 18.527 18.3641 19.1834C17.7156 19.8397 16.8364 20.2115 15.9175 20.2179Z" stroke="#AAA9AE" stroke-width="0.72449" stroke-linecap="round" stroke-linejoin="round"/>
</svg>
